<svg xmlns="http://www.w3.org/2000/svg" xmlns:xlink="http://www.w3.org/1999/xlink" preserveAspectRatio="xMidYMid" width="47" height="47" viewBox="0 0 47 47">
  <defs>
    <style>
      .cls-1, .cls-2 {
        font-size: 43.2069px;
      }

      .cls-14, .cls-2, .cls-20, .cls-24, .cls-26, .cls-27, .cls-4, .cls-7 {
        text-anchor: middle;
      }

      .cls-2 {
        font-family: "Roboto-Thin";
      }

      .cls-3, .cls-4 {
        font-size: 30px;
      }

      .cls-20, .cls-4 {
        fill: #1c1c1c;
      }

      .cls-14, .cls-18, .cls-20, .cls-24, .cls-26, .cls-27, .cls-4 {
        font-family: "Roboto-Light";
      }

      .cls-5 {
        fill: #9e9e9e;
      }

      .cls-10, .cls-11, .cls-12, .cls-15, .cls-16, .cls-19, .cls-5, .cls-8, .cls-9 {
        fill-rule: evenodd;
      }

      .cls-6, .cls-7 {
        font-size: 24px;
      }

      .cls-23, .cls-7 {
        fill: #c8c8c8;
        font-family: "Roboto";
      }

      .cls-12, .cls-21, .cls-8 {
        fill: #d9d9d9;
      }

      .cls-21, .cls-8, .cls-9 {
        stroke: #e5e5e5;
      }

      .cls-15, .cls-19, .cls-21, .cls-8, .cls-9 {
        stroke-linejoin: round;
        stroke-width: 1px;
      }

      .cls-21, .cls-8 {
        fill-opacity: 0;
      }

      .cls-11, .cls-15, .cls-16, .cls-24, .cls-9 {
        fill: #fff;
      }

      .cls-10, .cls-14 {
        fill: #435993;
      }

      .cls-11 {
        filter: url(#drop-shadow-1);
      }

      .cls-13, .cls-14 {
        font-size: 20.0114px;
      }

      .cls-15, .cls-19 {
        stroke: #435993;
      }

      .cls-17, .cls-18, .cls-20, .cls-24 {
        font-size: 16px;
      }

      .cls-19 {
        fill: #e9efff;
      }

      .cls-22, .cls-23 {
        font-size: 20px;
      }

      .cls-25, .cls-26, .cls-27 {
        font-size: 14px;
      }

      .cls-26 {
        fill: #637ab4;
      }

      .cls-26, .cls-27 {
        text-transform: uppercase;
      }

      .cls-27 {
        fill: #494949;
      }
    </style>

    <filter id="drop-shadow-1" filterUnits="userSpaceOnUse">
      <feOffset dy="3" in="SourceAlpha"/>
      <feGaussianBlur stdDeviation="2.828" result="dropBlur"/>
      <feFlood flood-opacity="0.2"/>
      <feComposite operator="in" in2="dropBlur" result="dropShadowComp"/>
      <feComposite in="SourceGraphic" result="shadowed"/>
    </filter>
  </defs>  
  <g>    
    <path d="M23.500,-895.000 C10.542,-895.000 -0.000,-905.542 -0.000,-918.500 C-0.000,-931.458 10.542,-942.000 23.500,-942.000 C36.458,-942.000 47.000,-931.458 47.000,-918.500 C47.000,-905.542 36.458,-895.000 23.500,-895.000 ZM23.500,-941.000 C11.094,-941.000 1.000,-930.906 1.000,-918.500 C1.000,-906.094 11.094,-896.000 23.500,-896.000 C35.906,-896.000 46.000,-906.094 46.000,-918.500 C46.000,-930.906 35.906,-941.000 23.500,-941.000 ZM33.847,-905.688 L33.469,-905.656 L33.469,-905.128 C33.469,-904.502 32.945,-903.997 32.300,-903.997 L13.439,-903.997 L13.348,-903.989 C13.334,-903.989 13.322,-903.997 13.308,-903.997 L13.172,-903.997 C12.527,-903.997 12.003,-904.502 12.003,-905.128 L12.003,-930.849 C12.003,-931.474 12.527,-931.981 13.172,-931.981 L13.308,-931.981 C13.322,-931.981 13.334,-931.989 13.348,-931.989 L33.847,-933.689 C34.479,-933.689 34.994,-933.181 34.994,-932.556 L34.994,-906.821 C34.994,-906.196 34.479,-905.688 33.847,-905.688 ZM13.172,-930.971 C13.093,-930.971 13.026,-930.916 13.026,-930.849 L13.026,-905.128 C13.026,-905.062 13.091,-905.008 13.172,-905.008 L31.800,-905.008 C31.881,-905.008 31.946,-905.062 31.946,-905.128 L31.946,-930.849 C31.946,-930.916 31.879,-930.971 31.800,-930.971 L13.172,-930.971 ZM33.971,-932.556 C33.971,-932.616 33.927,-932.665 33.869,-932.676 L25.898,-931.981 L31.800,-931.981 C32.445,-931.981 32.969,-931.474 32.969,-930.849 L32.969,-906.670 L33.757,-906.695 L33.802,-906.699 L33.847,-906.699 C33.915,-906.699 33.971,-906.754 33.971,-906.821 L33.971,-932.556 ZM27.875,-908.001 L17.136,-908.001 C16.511,-908.001 16.005,-908.536 16.005,-909.200 L16.005,-909.800 C16.005,-910.462 16.511,-910.999 17.136,-910.999 L27.875,-910.999 C28.500,-910.999 29.006,-910.462 29.006,-909.800 L29.006,-909.200 C29.006,-908.536 28.500,-908.001 27.875,-908.001 ZM28.006,-909.800 C28.006,-909.923 27.930,-909.999 27.875,-909.999 L17.136,-909.999 C17.081,-909.999 17.005,-909.923 17.005,-909.800 L17.005,-909.200 C17.005,-909.086 17.074,-909.001 17.136,-909.001 L27.875,-909.001 C27.936,-909.001 28.006,-909.086 28.006,-909.200 L28.006,-909.800 ZM22.500,-915.000 C18.910,-915.000 16.000,-917.910 16.000,-921.500 C16.000,-925.090 18.910,-928.000 22.500,-928.000 C26.090,-928.000 29.000,-925.090 29.000,-921.500 C29.000,-917.910 26.090,-915.000 22.500,-915.000 ZM22.500,-927.000 C19.462,-927.000 17.000,-924.538 17.000,-921.500 C17.000,-918.462 19.462,-916.000 22.500,-916.000 C25.538,-916.000 28.000,-918.462 28.000,-921.500 C28.000,-924.538 25.538,-927.000 22.500,-927.000 Z" class="cls-5"/>    
  </g>
  <g>    
    <g>
      <g>
        <path d="M-357.001,-127.987 L-343.007,-127.987 C-341.351,-127.987 -340.009,-126.645 -340.009,-124.989 L-340.009,-110.997 C-340.009,-109.341 -341.351,-107.999 -343.007,-107.999 L-357.001,-107.999 C-358.657,-107.999 -360.000,-109.341 -360.000,-110.997 L-360.000,-124.989 C-360.000,-126.645 -358.657,-127.987 -357.001,-127.987 Z" class="cls-15"/>
        <path d="M-357.001,-93.007 L-343.007,-93.007 C-341.351,-93.007 -340.009,-91.663 -340.009,-90.004 L-340.009,-75.990 C-340.009,-74.332 -341.351,-72.987 -343.007,-72.987 L-357.001,-72.987 C-358.657,-72.987 -360.000,-74.332 -360.000,-75.990 L-360.000,-90.004 C-360.000,-91.663 -358.657,-93.007 -357.001,-93.007 Z" class="cls-15"/>
        <path d="M-357.001,-163.092 L-343.007,-163.092 C-341.351,-163.092 -340.009,-161.750 -340.009,-160.094 L-340.009,-146.102 C-340.009,-144.446 -341.351,-143.104 -343.007,-143.104 L-357.001,-143.104 C-358.657,-143.104 -360.000,-144.446 -360.000,-146.102 L-360.000,-160.094 C-360.000,-161.750 -358.657,-163.092 -357.001,-163.092 Z" class="cls-15"/>
        <g>
          <path d="M-357.001,-162.999 L-343.007,-162.999 C-341.351,-162.999 -340.009,-161.656 -340.009,-160.000 L-340.009,-146.008 C-340.009,-144.352 -341.351,-143.010 -343.007,-143.010 L-357.001,-143.010 C-358.657,-143.010 -360.000,-144.352 -360.000,-146.008 L-360.000,-160.000 C-360.000,-161.656 -358.657,-162.999 -357.001,-162.999 Z" class="cls-10"/>
          <path d="M-343.293,-155.293 L-350.293,-148.293 L-350.500,-148.500 L-350.707,-148.293 L-355.707,-153.293 L-354.293,-154.707 L-350.500,-150.914 L-344.707,-156.707 L-343.293,-155.293 Z" class="cls-16"/>
        </g>
      </g>      
      <g>
        <path d="M-76.996,-162.999 L-63.002,-162.999 C-61.346,-162.999 -60.003,-161.656 -60.003,-160.000 L-60.003,-146.008 C-60.003,-144.352 -61.346,-143.010 -63.002,-143.010 L-76.996,-143.010 C-78.652,-143.010 -79.995,-144.352 -79.995,-146.008 L-79.995,-160.000 C-79.995,-161.656 -78.652,-162.999 -76.996,-162.999 Z" class="cls-15"/>
        <path d="M-76.996,-127.987 L-63.002,-127.987 C-61.346,-127.987 -60.003,-126.645 -60.003,-124.989 L-60.003,-110.997 C-60.003,-109.341 -61.346,-107.999 -63.002,-107.999 L-76.996,-107.999 C-78.652,-107.999 -79.995,-109.341 -79.995,-110.997 L-79.995,-124.989 C-79.995,-126.645 -78.652,-127.987 -76.996,-127.987 Z" class="cls-15"/>
        <path d="M-76.996,-93.007 L-63.002,-93.007 C-61.346,-93.007 -60.003,-91.663 -60.003,-90.004 L-60.003,-75.990 C-60.003,-74.332 -61.346,-72.987 -63.002,-72.987 L-76.996,-72.987 C-78.652,-72.987 -79.995,-74.332 -79.995,-75.990 L-79.995,-90.004 C-79.995,-91.663 -78.652,-93.007 -76.996,-93.007 Z" class="cls-15"/>
        <path d="M-357.001,-127.999 L-343.007,-127.999 C-341.351,-127.999 -340.009,-126.656 -340.009,-125.000 L-340.009,-111.008 C-340.009,-109.352 -341.351,-108.010 -343.007,-108.010 L-357.001,-108.010 C-358.657,-108.010 -360.000,-109.352 -360.000,-111.008 L-360.000,-125.000 C-360.000,-126.656 -358.657,-127.999 -357.001,-127.999 Z" class="cls-19"/>
      </g>      
      <g>
        <path d="M203.004,-162.999 L216.998,-162.999 C218.654,-162.999 219.997,-161.656 219.997,-160.000 L219.997,-146.008 C219.997,-144.352 218.654,-143.010 216.998,-143.010 L203.004,-143.010 C201.348,-143.010 200.005,-144.352 200.005,-146.008 L200.005,-160.000 C200.005,-161.656 201.348,-162.999 203.004,-162.999 Z" class="cls-15"/>
        <path d="M203.004,-127.987 L216.998,-127.987 C218.654,-127.987 219.997,-126.645 219.997,-124.989 L219.997,-110.997 C219.997,-109.341 218.654,-107.999 216.998,-107.999 L203.004,-107.999 C201.348,-107.999 200.005,-109.341 200.005,-110.997 L200.005,-124.989 C200.005,-126.645 201.348,-127.987 203.004,-127.987 Z" class="cls-15"/>
        <path d="M203.004,-93.007 L216.998,-93.007 C218.654,-93.007 219.997,-91.663 219.997,-90.004 L219.997,-75.990 C219.997,-74.332 218.654,-72.987 216.998,-72.987 L203.004,-72.987 C201.348,-72.987 200.005,-74.332 200.005,-75.990 L200.005,-90.004 C200.005,-91.663 201.348,-93.007 203.004,-93.007 Z" class="cls-15"/>
      </g>     
      <path d="M25.500,-270.000 C12.542,-270.000 2.000,-280.542 2.000,-293.500 C2.000,-306.458 12.542,-317.000 25.500,-317.000 C38.458,-317.000 49.000,-306.458 49.000,-293.500 C49.000,-280.542 38.458,-270.000 25.500,-270.000 ZM25.500,-316.000 C13.094,-316.000 3.000,-305.906 3.000,-293.500 C3.000,-281.094 13.094,-271.000 25.500,-271.000 C37.906,-271.000 48.000,-281.094 48.000,-293.500 C48.000,-305.906 37.906,-316.000 25.500,-316.000 ZM22.009,-283.998 L38.009,-283.998 L38.009,-281.998 L22.009,-281.998 L22.009,-283.998 ZM22.009,-294.004 L38.009,-294.004 L38.009,-292.004 L22.009,-292.004 L22.009,-294.004 ZM22.009,-304.010 L38.009,-304.010 L38.009,-302.010 L22.009,-302.010 L22.009,-304.010 ZM16.499,-279.998 L15.499,-279.998 C14.120,-279.998 12.999,-281.119 12.999,-282.498 L12.999,-283.498 C12.999,-284.877 14.120,-285.998 15.499,-285.998 L16.499,-285.998 C17.878,-285.998 18.999,-284.877 18.999,-283.498 L18.999,-282.498 C18.999,-281.119 17.878,-279.998 16.499,-279.998 ZM17.999,-283.498 C17.999,-284.325 17.326,-284.998 16.499,-284.998 L15.499,-284.998 C14.672,-284.998 13.999,-284.325 13.999,-283.498 L13.999,-282.498 C13.999,-281.671 14.672,-280.998 15.499,-280.998 L16.499,-280.998 C17.326,-280.998 17.999,-281.671 17.999,-282.498 L17.999,-283.498 ZM16.499,-290.004 L15.499,-290.004 C14.120,-290.004 12.999,-291.125 12.999,-292.504 L12.999,-293.504 C12.999,-294.883 14.120,-296.004 15.499,-296.004 L16.499,-296.004 C17.878,-296.004 18.999,-294.883 18.999,-293.504 L18.999,-292.504 C18.999,-291.125 17.878,-290.004 16.499,-290.004 ZM17.999,-293.504 C17.999,-294.331 17.326,-295.004 16.499,-295.004 L15.499,-295.004 C14.672,-295.004 13.999,-294.331 13.999,-293.504 L13.999,-292.504 C13.999,-291.677 14.672,-291.004 15.499,-291.004 L16.499,-291.004 C17.326,-291.004 17.999,-291.677 17.999,-292.504 L17.999,-293.504 ZM16.499,-300.010 L15.499,-300.010 C14.120,-300.010 12.999,-301.131 12.999,-302.510 L12.999,-303.510 C12.999,-304.889 14.120,-306.010 15.499,-306.010 L16.499,-306.010 C17.878,-306.010 18.999,-304.889 18.999,-303.510 L18.999,-302.510 C18.999,-301.131 17.878,-300.010 16.499,-300.010 ZM17.999,-303.510 C17.999,-304.337 17.326,-305.010 16.499,-305.010 L15.499,-305.010 C14.672,-305.010 13.999,-304.337 13.999,-303.510 L13.999,-302.510 C13.999,-301.683 14.672,-301.010 15.499,-301.010 L16.499,-301.010 C17.326,-301.010 17.999,-301.683 17.999,-302.510 L17.999,-303.510 Z" class="cls-5"/>
    </g>
  </g>
  <g>
    <path d="M23.500,47.000 C10.542,47.000 -0.000,36.458 -0.000,23.500 C-0.000,10.542 10.542,-0.000 23.500,-0.000 C36.458,-0.000 47.000,10.542 47.000,23.500 C47.000,36.458 36.458,47.000 23.500,47.000 ZM23.500,1.000 C11.094,1.000 1.000,11.094 1.000,23.500 C1.000,35.906 11.094,46.000 23.500,46.000 C35.906,46.000 46.000,35.906 46.000,23.500 C46.000,11.094 35.906,1.000 23.500,1.000 ZM22.010,21.996 L38.015,21.996 L38.015,23.996 L22.010,23.996 L22.010,21.996 ZM22.010,15.993 L38.015,15.993 L38.015,17.993 L22.010,17.993 L22.010,15.993 ZM22.010,9.989 L38.015,9.989 L38.015,11.989 L22.010,11.989 L22.010,9.989 ZM17.996,22.989 L10.996,22.989 C9.892,22.989 8.996,22.094 8.996,20.989 L8.996,11.989 C8.996,10.885 9.892,9.989 10.996,9.989 L17.996,9.989 C19.101,9.989 19.996,10.885 19.996,11.989 L19.996,20.989 C19.996,22.094 19.101,22.989 17.996,22.989 ZM18.996,11.989 C18.996,11.437 18.548,10.989 17.996,10.989 L10.996,10.989 C10.444,10.989 9.996,11.437 9.996,11.989 L9.996,20.989 C9.996,21.541 10.444,21.989 10.996,21.989 L17.996,21.989 C18.548,21.989 18.996,21.541 18.996,20.989 L18.996,11.989 ZM38.015,29.998 L9.015,29.998 L9.015,27.998 L38.015,27.998 L38.015,29.998 ZM38.015,36.000 L9.015,36.000 L9.015,34.000 L38.015,34.000 L38.015,36.000 Z" class="cls-5"/>    
  </g> 
</svg>
