<!-- Generator: Adobe Illustrator 19.0.1, SVG Export Plug-In  -->
<svg version="1.1"
	 xmlns="http://www.w3.org/2000/svg" xmlns:xlink="http://www.w3.org/1999/xlink" xmlns:a="http://ns.adobe.com/AdobeSVGViewerExtensions/3.0/"
	 x="0px" y="0px" width="47px" height="47px" viewBox="0 0 47 47" style="enable-background:new 0 0 47 47;" xml:space="preserve">
<style type="text/css">
	.st0{fill:#9E9E9E;}
</style>
<defs>
</defs>
<g id="icon_1_">
	<g>
		<path class="st0" d="M33.8,8.3L13.3,10c0,0,0,0,0,0h-0.1c-0.6,0-1.2,0.5-1.2,1.1v25.7c0,0.6,0.5,1.1,1.2,1.1h0.1c0,0,0,0,0,0
			l0.1,0h18.9c0.6,0,1.2-0.5,1.2-1.1v-0.5l0.4,0c0.6,0,1.1-0.5,1.1-1.1V9.4C35,8.8,34.5,8.3,33.8,8.3z M31.9,36.9
			c0,0.1-0.1,0.1-0.1,0.1H13.2c-0.1,0-0.1-0.1-0.1-0.1V11.2c0-0.1,0.1-0.1,0.1-0.1h18.6c0.1,0,0.1,0.1,0.1,0.1V36.9z M34,35.2
			c0,0.1-0.1,0.1-0.1,0.1h0l0,0l-0.8,0V11.2c0-0.6-0.5-1.1-1.2-1.1h-5.9l8-0.7c0.1,0,0.1,0.1,0.1,0.1V35.2z M27.9,31H17.1
			c-0.6,0-1.1,0.5-1.1,1.2v0.6c0,0.7,0.5,1.2,1.1,1.2h10.7c0.6,0,1.1-0.5,1.1-1.2v-0.6C29,31.5,28.5,31,27.9,31z M28,32.8
			c0,0.1-0.1,0.2-0.1,0.2H17.1c-0.1,0-0.1-0.1-0.1-0.2v-0.6c0-0.1,0.1-0.2,0.1-0.2h10.7c0.1,0,0.1,0.1,0.1,0.2V32.8z M22.5,27
			c3.6,0,6.5-2.9,6.5-6.5c0-3.6-2.9-6.5-6.5-6.5c-3.6,0-6.5,2.9-6.5,6.5C16,24.1,18.9,27,22.5,27z M22.5,15c3,0,5.5,2.5,5.5,5.5
			S25.5,26,22.5,26S17,23.5,17,20.5S19.5,15,22.5,15z M23.5,0C10.5,0,0,10.5,0,23.5C0,36.5,10.5,47,23.5,47C36.5,47,47,36.5,47,23.5
			C47,10.5,36.5,0,23.5,0z M23.5,46C11.1,46,1,35.9,1,23.5S11.1,1,23.5,1C35.9,1,46,11.1,46,23.5S35.9,46,23.5,46z"/>
	</g>
</g>
</svg>
