<!-- Generator: Adobe Illustrator 19.0.1, SVG Export Plug-In  -->
<svg version="1.1"
	 xmlns="http://www.w3.org/2000/svg" xmlns:xlink="http://www.w3.org/1999/xlink" xmlns:a="http://ns.adobe.com/AdobeSVGViewerExtensions/3.0/"
	 x="0px" y="0px" width="47px" height="47px" viewBox="0 0 47 47" style="enable-background:new 0 0 47 47;" xml:space="preserve">
<style type="text/css">
	.st0{fill:#9E9E9E;}
</style>
<defs>
</defs>
<g id="Shape_7_2_">
	<g>
		<path class="st0" d="M14.5,11h-1c-1.4,0-2.5,1.1-2.5,2.5v1c0,1.4,1.1,2.5,2.5,2.5h1c1.4,0,2.5-1.1,2.5-2.5v-1
			C17,12.1,15.9,11,14.5,11z M16,14.5c0,0.8-0.7,1.5-1.5,1.5h-1c-0.8,0-1.5-0.7-1.5-1.5v-1c0-0.8,0.7-1.5,1.5-1.5h1
			c0.8,0,1.5,0.7,1.5,1.5V14.5z M20,15h16v-2H20V15z M14.5,21h-1c-1.4,0-2.5,1.1-2.5,2.5v1c0,1.4,1.1,2.5,2.5,2.5h1
			c1.4,0,2.5-1.1,2.5-2.5v-1C17,22.1,15.9,21,14.5,21z M16,24.5c0,0.8-0.7,1.5-1.5,1.5h-1c-0.8,0-1.5-0.7-1.5-1.5v-1
			c0-0.8,0.7-1.5,1.5-1.5h1c0.8,0,1.5,0.7,1.5,1.5V24.5z M20,25h16v-2H20V25z M14.5,31h-1c-1.4,0-2.5,1.1-2.5,2.5v1
			c0,1.4,1.1,2.5,2.5,2.5h1c1.4,0,2.5-1.1,2.5-2.5v-1C17,32.1,15.9,31,14.5,31z M16,34.5c0,0.8-0.7,1.5-1.5,1.5h-1
			c-0.8,0-1.5-0.7-1.5-1.5v-1c0-0.8,0.7-1.5,1.5-1.5h1c0.8,0,1.5,0.7,1.5,1.5V34.5z M20,35h16v-2H20V35z M23.5,0
			C10.5,0,0,10.5,0,23.5S10.5,47,23.5,47C36.5,47,47,36.5,47,23.5S36.5,0,23.5,0z M23.5,46C11.1,46,1,35.9,1,23.5
			C1,11.1,11.1,1,23.5,1C35.9,1,46,11.1,46,23.5C46,35.9,35.9,46,23.5,46z"/>
	</g>
</g>
</svg>
