<svg xmlns="http://www.w3.org/2000/svg" xmlns:xlink="http://www.w3.org/1999/xlink" preserveAspectRatio="xMidYMid" width="47" height="47" viewBox="0 0 47 47">
  <defs>
    <style>
      .cls-1, .cls-2 {
        font-size: 43.2069px;
      }

      .cls-14, .cls-2, .cls-20, .cls-24, .cls-26, .cls-27, .cls-4, .cls-7 {
        text-anchor: middle;
      }

      .cls-2 {
        font-family: "Roboto-Thin";
      }

      .cls-3, .cls-4 {
        font-size: 30px;
      }

      .cls-20, .cls-4 {
        fill: #1c1c1c;
      }

      .cls-14, .cls-18, .cls-20, .cls-24, .cls-26, .cls-27, .cls-4 {
        font-family: "Roboto-Light";
      }

      .cls-5 {
        fill: #9e9e9e;
      }

      .cls-10, .cls-11, .cls-12, .cls-15, .cls-16, .cls-19, .cls-5, .cls-8, .cls-9 {
        fill-rule: evenodd;
      }

      .cls-6, .cls-7 {
        font-size: 24px;
      }

      .cls-23, .cls-7 {
        fill: #c8c8c8;
        font-family: "Roboto";
      }

      .cls-12, .cls-21, .cls-8 {
        fill: #d9d9d9;
      }

      .cls-21, .cls-8, .cls-9 {
        stroke: #e5e5e5;
      }

      .cls-15, .cls-19, .cls-21, .cls-8, .cls-9 {
        stroke-linejoin: round;
        stroke-width: 1px;
      }

      .cls-21, .cls-8 {
        fill-opacity: 0;
      }

      .cls-11, .cls-15, .cls-16, .cls-24, .cls-9 {
        fill: #fff;
      }

      .cls-10, .cls-14 {
        fill: #435993;
      }

      .cls-11 {
        filter: url(#drop-shadow-1);
      }

      .cls-13, .cls-14 {
        font-size: 20.0114px;
      }

      .cls-15, .cls-19 {
        stroke: #435993;
      }

      .cls-17, .cls-18, .cls-20, .cls-24 {
        font-size: 16px;
      }

      .cls-19 {
        fill: #e9efff;
      }

      .cls-22, .cls-23 {
        font-size: 20px;
      }

      .cls-25, .cls-26, .cls-27 {
        font-size: 14px;
      }

      .cls-26 {
        fill: #637ab4;
      }

      .cls-26, .cls-27 {
        text-transform: uppercase;
      }

      .cls-27 {
        fill: #494949;
      }
    </style>
    
    <filter id="drop-shadow-1" filterUnits="userSpaceOnUse">
      <feOffset dy="3" in="SourceAlpha"/>
      <feGaussianBlur stdDeviation="2.828" result="dropBlur"/>
      <feFlood flood-opacity="0.2"/>
      <feComposite operator="in" in2="dropBlur" result="dropShadowComp"/>
      <feComposite in="SourceGraphic" result="shadowed"/>
    </filter>
  </defs>
  <g>    
    <path d="M21.500,-578.000 C8.542,-578.000 -2.000,-588.542 -2.000,-601.500 C-2.000,-614.458 8.542,-625.000 21.500,-625.000 C34.458,-625.000 45.000,-614.458 45.000,-601.500 C45.000,-588.542 34.458,-578.000 21.500,-578.000 ZM21.500,-624.000 C9.094,-624.000 -1.000,-613.906 -1.000,-601.500 C-1.000,-589.094 9.094,-579.000 21.500,-579.000 C33.906,-579.000 44.000,-589.094 44.000,-601.500 C44.000,-613.906 33.906,-624.000 21.500,-624.000 ZM31.847,-588.688 L31.469,-588.656 L31.469,-588.128 C31.469,-587.502 30.945,-586.997 30.300,-586.997 L11.439,-586.997 L11.348,-586.989 C11.334,-586.989 11.322,-586.997 11.308,-586.997 L11.172,-586.997 C10.527,-586.997 10.003,-587.502 10.003,-588.128 L10.003,-613.849 C10.003,-614.474 10.527,-614.981 11.172,-614.981 L11.308,-614.981 C11.322,-614.981 11.334,-614.989 11.348,-614.989 L31.847,-616.689 C32.479,-616.689 32.994,-616.181 32.994,-615.556 L32.994,-589.821 C32.994,-589.196 32.479,-588.688 31.847,-588.688 ZM11.172,-613.971 C11.093,-613.971 11.026,-613.916 11.026,-613.849 L11.026,-588.128 C11.026,-588.062 11.091,-588.008 11.172,-588.008 L29.800,-588.008 C29.881,-588.008 29.946,-588.062 29.946,-588.128 L29.946,-613.849 C29.946,-613.916 29.879,-613.971 29.800,-613.971 L11.172,-613.971 ZM31.971,-615.556 C31.971,-615.616 31.927,-615.665 31.869,-615.676 L23.898,-614.981 L29.800,-614.981 C30.445,-614.981 30.969,-614.474 30.969,-613.849 L30.969,-589.670 L31.757,-589.695 L31.802,-589.699 L31.847,-589.699 C31.915,-589.699 31.971,-589.754 31.971,-589.821 L31.971,-615.556 ZM25.875,-591.001 L15.136,-591.001 C14.511,-591.001 14.005,-591.536 14.005,-592.200 L14.005,-592.800 C14.005,-593.462 14.511,-593.999 15.136,-593.999 L25.875,-593.999 C26.500,-593.999 27.006,-593.462 27.006,-592.800 L27.006,-592.200 C27.006,-591.536 26.500,-591.001 25.875,-591.001 ZM26.006,-592.800 C26.006,-592.923 25.930,-592.999 25.875,-592.999 L15.136,-592.999 C15.081,-592.999 15.005,-592.923 15.005,-592.800 L15.005,-592.200 C15.005,-592.086 15.074,-592.001 15.136,-592.001 L25.875,-592.001 C25.936,-592.001 26.006,-592.086 26.006,-592.200 L26.006,-592.800 ZM20.500,-598.000 C16.910,-598.000 14.000,-600.910 14.000,-604.500 C14.000,-608.090 16.910,-611.000 20.500,-611.000 C24.090,-611.000 27.000,-608.090 27.000,-604.500 C27.000,-600.910 24.090,-598.000 20.500,-598.000 ZM20.500,-610.000 C17.462,-610.000 15.000,-607.538 15.000,-604.500 C15.000,-601.462 17.462,-599.000 20.500,-599.000 C23.538,-599.000 26.000,-601.462 26.000,-604.500 C26.000,-607.538 23.538,-610.000 20.500,-610.000 Z" class="cls-5"/>    
  </g>
  <g>
    <g>
      <g>
        <path d="M-359.001,189.013 L-345.007,189.013 C-343.351,189.013 -342.009,190.355 -342.009,192.011 L-342.009,206.003 C-342.009,207.659 -343.351,209.001 -345.007,209.001 L-359.001,209.001 C-360.657,209.001 -362.000,207.659 -362.000,206.003 L-362.000,192.011 C-362.000,190.355 -360.657,189.013 -359.001,189.013 Z" class="cls-15"/>
        <path d="M-359.001,223.993 L-345.007,223.993 C-343.351,223.993 -342.009,225.337 -342.009,226.996 L-342.009,241.010 C-342.009,242.668 -343.351,244.013 -345.007,244.013 L-359.001,244.013 C-360.657,244.013 -362.000,242.668 -362.000,241.010 L-362.000,226.996 C-362.000,225.337 -360.657,223.993 -359.001,223.993 Z" class="cls-15"/>
        <path d="M-359.001,153.908 L-345.007,153.908 C-343.351,153.908 -342.009,155.250 -342.009,156.906 L-342.009,170.898 C-342.009,172.554 -343.351,173.896 -345.007,173.896 L-359.001,173.896 C-360.657,173.896 -362.000,172.554 -362.000,170.898 L-362.000,156.906 C-362.000,155.250 -360.657,153.908 -359.001,153.908 Z" class="cls-15"/>
        <g>
          <path d="M-359.001,154.001 L-345.007,154.001 C-343.351,154.001 -342.009,155.344 -342.009,157.000 L-342.009,170.992 C-342.009,172.648 -343.351,173.990 -345.007,173.990 L-359.001,173.990 C-360.657,173.990 -362.000,172.648 -362.000,170.992 L-362.000,157.000 C-362.000,155.344 -360.657,154.001 -359.001,154.001 Z" class="cls-10"/>
          <path d="M-345.293,161.707 L-352.293,168.707 L-352.500,168.500 L-352.707,168.707 L-357.707,163.707 L-356.293,162.293 L-352.500,166.086 L-346.707,160.293 L-345.293,161.707 Z" class="cls-16"/>
        </g>
      </g>
      <path d="M23.500,47.000 C10.542,47.000 -0.000,36.458 -0.000,23.500 C-0.000,10.542 10.542,-0.000 23.500,-0.000 C36.458,-0.000 47.000,10.542 47.000,23.500 C47.000,36.458 36.458,47.000 23.500,47.000 ZM23.500,1.000 C11.094,1.000 1.000,11.094 1.000,23.500 C1.000,35.906 11.094,46.000 23.500,46.000 C35.906,46.000 46.000,35.906 46.000,23.500 C46.000,11.094 35.906,1.000 23.500,1.000 ZM20.009,33.002 L36.009,33.002 L36.009,35.002 L20.009,35.002 L20.009,33.002 ZM20.009,22.996 L36.009,22.996 L36.009,24.996 L20.009,24.996 L20.009,22.996 ZM20.009,12.990 L36.009,12.990 L36.009,14.990 L20.009,14.990 L20.009,12.990 ZM14.499,37.002 L13.499,37.002 C12.120,37.002 10.999,35.881 10.999,34.502 L10.999,33.502 C10.999,32.123 12.120,31.002 13.499,31.002 L14.499,31.002 C15.878,31.002 16.999,32.123 16.999,33.502 L16.999,34.502 C16.999,35.881 15.878,37.002 14.499,37.002 ZM15.999,33.502 C15.999,32.675 15.326,32.002 14.499,32.002 L13.499,32.002 C12.672,32.002 11.999,32.675 11.999,33.502 L11.999,34.502 C11.999,35.329 12.672,36.002 13.499,36.002 L14.499,36.002 C15.326,36.002 15.999,35.329 15.999,34.502 L15.999,33.502 ZM14.499,26.996 L13.499,26.996 C12.120,26.996 10.999,25.875 10.999,24.496 L10.999,23.496 C10.999,22.117 12.120,20.996 13.499,20.996 L14.499,20.996 C15.878,20.996 16.999,22.117 16.999,23.496 L16.999,24.496 C16.999,25.875 15.878,26.996 14.499,26.996 ZM15.999,23.496 C15.999,22.669 15.326,21.996 14.499,21.996 L13.499,21.996 C12.672,21.996 11.999,22.669 11.999,23.496 L11.999,24.496 C11.999,25.323 12.672,25.996 13.499,25.996 L14.499,25.996 C15.326,25.996 15.999,25.323 15.999,24.496 L15.999,23.496 ZM14.499,16.990 L13.499,16.990 C12.120,16.990 10.999,15.869 10.999,14.490 L10.999,13.490 C10.999,12.111 12.120,10.990 13.499,10.990 L14.499,10.990 C15.878,10.990 16.999,12.111 16.999,13.490 L16.999,14.490 C16.999,15.869 15.878,16.990 14.499,16.990 ZM15.999,13.490 C15.999,12.663 15.326,11.990 14.499,11.990 L13.499,11.990 C12.672,11.990 11.999,12.663 11.999,13.490 L11.999,14.490 C11.999,15.317 12.672,15.990 13.499,15.990 L14.499,15.990 C15.326,15.990 15.999,15.317 15.999,14.490 L15.999,13.490 Z" class="cls-5"/>
    </g>
  </g>  
</svg>
