<!-- Generator: Adobe Illustrator 19.0.1, SVG Export Plug-In  -->
<svg version="1.1"
	 xmlns="http://www.w3.org/2000/svg" xmlns:xlink="http://www.w3.org/1999/xlink" xmlns:a="http://ns.adobe.com/AdobeSVGViewerExtensions/3.0/"
	 x="0px" y="0px" width="47px" height="47px" viewBox="0 0 47 47" style="enable-background:new 0 0 47 47;" xml:space="preserve">
<style type="text/css">
	.st0{fill:#9E9E9E;}
</style>
<defs>
</defs>
<g id="icon_3_">
	<g>
		<path class="st0" d="M22,12h16v-2H22V12z M22,18h16v-2H22V18z M22,24h16v-2H22V24z M9,30h29v-2H9V30z M9,36h29v-2H9V36z M11,23h7
			c1.1,0,2-0.9,2-2v-9c0-1.1-0.9-2-2-2h-7c-1.1,0-2,0.9-2,2v9C9,22.1,9.9,23,11,23z M10,12c0-0.6,0.4-1,1-1h7c0.6,0,1,0.4,1,1v9
			c0,0.6-0.4,1-1,1h-7c-0.6,0-1-0.4-1-1V12z M23.5,0C10.5,0,0,10.5,0,23.5S10.5,47,23.5,47C36.5,47,47,36.5,47,23.5S36.5,0,23.5,0z
			 M23.5,46C11.1,46,1,35.9,1,23.5C1,11.1,11.1,1,23.5,1C35.9,1,46,11.1,46,23.5C46,35.9,35.9,46,23.5,46z"/>
	</g>
</g>
</svg>
