<svg xmlns="http://www.w3.org/2000/svg" width="47" height="47"><path d="M33.8 8.3L13.3 10h-.1c-.6 0-1.2.5-1.2 1.1v25.7c0 .6.5 1.1 1.2 1.1h19.1c.6 0 1.2-.5 1.2-1.1v-.5h.4c.6 0 1.1-.5 1.1-1.1V9.4c0-.6-.5-1.1-1.2-1.1zm-1.9 28.6c0 .1-.1.1-.1.1H13.2c-.1 0-.1-.1-.1-.1V11.2c0-.1.1-.1.1-.1h18.6c.1 0 .1.1.1.1v25.7zm2.1-1.7c0 .1-.1.1-.1.1h-.8V11.2c0-.6-.5-1.1-1.2-1.1H26l8-.7c.1 0 .1.1.1.1v25.7zM27.9 31H17.1c-.6 0-1.1.5-1.1 1.2v.6c0 .7.5 1.2 1.1 1.2h10.7c.6 0 1.1-.5 1.1-1.2v-.6c.1-.7-.4-1.2-1-1.2zm.1 1.8c0 .1-.1.2-.1.2H17.1c-.1 0-.1-.1-.1-.2v-.6c0-.1.1-.2.1-.2h10.7c.1 0 .1.1.1.2v.6zM22.5 27c3.6 0 6.5-2.9 6.5-6.5S26.1 14 22.5 14 16 16.9 16 20.5s2.9 6.5 6.5 6.5zm0-12c3 0 5.5 2.5 5.5 5.5S25.5 26 22.5 26 17 23.5 17 20.5s2.5-5.5 5.5-5.5zm1-15C10.5 0 0 10.5 0 23.5S10.5 47 23.5 47 47 36.5 47 23.5 36.5 0 23.5 0zm0 46C11.1 46 1 35.9 1 23.5S11.1 1 23.5 1 46 11.1 46 23.5 35.9 46 23.5 46z" fill="#9e9e9e"/></svg>