<svg xmlns="http://www.w3.org/2000/svg" preserveAspectRatio="xMidYMid" width="47" height="47"><defs><style>.cls-5{fill:#9e9e9e;fill-rule:evenodd}</style><filter id="drop-shadow-1" filterUnits="userSpaceOnUse"><feOffset dy="3" in="SourceAlpha"/><feGaussianBlur stdDeviation="2.828" result="dropBlur"/><feFlood flood-opacity=".2"/><feComposite operator="in" in2="dropBlur" result="dropShadowComp"/><feComposite in="SourceGraphic" result="shadowed"/></filter></defs><path d="M21.5-578C8.542-578-2-588.542-2-601.5S8.542-625 21.5-625 45-614.458 45-601.5 34.458-578 21.5-578zm0-46C9.094-624-1-613.906-1-601.5S9.094-579 21.5-579 44-589.094 44-601.5 33.906-624 21.5-624zm10.347 35.312l-.378.032v.528c0 .626-.524 1.131-1.169 1.131H11.439l-.091.008c-.014 0-.026-.008-.04-.008h-.136c-.645 0-1.169-.505-1.169-1.131v-25.721c0-.625.524-1.132 1.169-1.132h.136c.014 0 .026-.008.04-.008l20.499-1.7c.632 0 1.147.508 1.147 1.133v25.735c0 .625-.515 1.133-1.147 1.133zm-20.675-25.283c-.079 0-.146.055-.146.122v25.721c0 .066.065.12.146.12H29.8c.081 0 .146-.054.146-.12v-25.721c0-.067-.067-.122-.146-.122H11.172zm20.799-1.585a.123.123 0 0 0-.102-.12l-7.971.695H29.8c.645 0 1.169.507 1.169 1.132v24.179l.788-.025.045-.004h.045a.124.124 0 0 0 .124-.122v-25.735zm-6.096 24.555H15.136c-.625 0-1.131-.535-1.131-1.199v-.6c0-.662.506-1.199 1.131-1.199h10.739c.625 0 1.131.537 1.131 1.199v.6c0 .664-.506 1.199-1.131 1.199zm.131-1.799c0-.123-.076-.199-.131-.199H15.136c-.055 0-.131.076-.131.199v.6c0 .114.069.199.131.199h10.739c.061 0 .131-.085.131-.199v-.6zM20.5-598a6.5 6.5 0 1 1 0-13 6.5 6.5 0 0 1 0 13zm0-12a5.5 5.5 0 1 0 0 11 5.5 5.5 0 1 0 0-11z" class="cls-5"/><path d="M-359.001 189.013h13.994a2.998 2.998 0 0 1 2.998 2.998v13.992a2.998 2.998 0 0 1-2.998 2.998h-13.994a2.999 2.999 0 0 1-2.999-2.998v-13.992a2.999 2.999 0 0 1 2.999-2.998zm0 34.98h13.994a3 3 0 0 1 2.998 3.003v14.014a3 3 0 0 1-2.998 3.003h-13.994A3.002 3.002 0 0 1-362 241.01v-14.014a3 3 0 0 1 2.999-3.003zm0-70.085h13.994a2.998 2.998 0 0 1 2.998 2.998v13.992a2.998 2.998 0 0 1-2.998 2.998h-13.994a2.999 2.999 0 0 1-2.999-2.998v-13.992a2.999 2.999 0 0 1 2.999-2.998z" stroke-linejoin="round" fill="#fff" stroke="#435993" fill-rule="evenodd"/><g fill-rule="evenodd"><path d="M-359.001 154.001h13.994a2.999 2.999 0 0 1 2.998 2.999v13.992a2.998 2.998 0 0 1-2.998 2.998h-13.994a2.999 2.999 0 0 1-2.999-2.998V157a3 3 0 0 1 2.999-2.999z" fill="#435993"/><path d="M-345.293 161.707l-7 7-.207-.207-.207.207-5-5 1.414-1.414 3.793 3.793 5.793-5.793 1.414 1.414z" fill="#fff"/></g><path d="M23.5 47C10.542 47 0 36.458 0 23.5S10.542 0 23.5 0 47 10.542 47 23.5 36.458 47 23.5 47zm0-46C11.094 1 1 11.094 1 23.5S11.094 46 23.5 46 46 35.906 46 23.5 35.906 1 23.5 1zm-3.491 32.002h16v2h-16v-2zm0-10.006h16v2h-16v-2zm0-10.006h16v2h-16v-2zm-5.51 24.012h-1a2.502 2.502 0 0 1-2.5-2.5v-1c0-1.379 1.121-2.5 2.5-2.5h1c1.379 0 2.5 1.121 2.5 2.5v1c0 1.379-1.121 2.5-2.5 2.5zm1.5-3.5c0-.827-.673-1.5-1.5-1.5h-1c-.827 0-1.5.673-1.5 1.5v1c0 .827.673 1.5 1.5 1.5h1c.827 0 1.5-.673 1.5-1.5v-1zm-1.5-6.506h-1a2.502 2.502 0 0 1-2.5-2.5v-1c0-1.379 1.121-2.5 2.5-2.5h1c1.379 0 2.5 1.121 2.5 2.5v1c0 1.379-1.121 2.5-2.5 2.5zm1.5-3.5c0-.827-.673-1.5-1.5-1.5h-1c-.827 0-1.5.673-1.5 1.5v1c0 .827.673 1.5 1.5 1.5h1c.827 0 1.5-.673 1.5-1.5v-1zm-1.5-6.506h-1a2.502 2.502 0 0 1-2.5-2.5v-1c0-1.379 1.121-2.5 2.5-2.5h1c1.379 0 2.5 1.121 2.5 2.5v1c0 1.379-1.121 2.5-2.5 2.5zm1.5-3.5c0-.827-.673-1.5-1.5-1.5h-1c-.827 0-1.5.673-1.5 1.5v1c0 .827.673 1.5 1.5 1.5h1c.827 0 1.5-.673 1.5-1.5v-1z" class="cls-5"/></svg>