<svg xmlns="http://www.w3.org/2000/svg" width="47" height="47"><path d="M14.5 11h-1c-1.4 0-2.5 1.1-2.5 2.5v1c0 1.4 1.1 2.5 2.5 2.5h1c1.4 0 2.5-1.1 2.5-2.5v-1c0-1.4-1.1-2.5-2.5-2.5zm1.5 3.5c0 .8-.7 1.5-1.5 1.5h-1c-.8 0-1.5-.7-1.5-1.5v-1c0-.8.7-1.5 1.5-1.5h1c.8 0 1.5.7 1.5 1.5v1zm4 .5h16v-2H20v2zm-5.5 6h-1c-1.4 0-2.5 1.1-2.5 2.5v1c0 1.4 1.1 2.5 2.5 2.5h1c1.4 0 2.5-1.1 2.5-2.5v-1c0-1.4-1.1-2.5-2.5-2.5zm1.5 3.5c0 .8-.7 1.5-1.5 1.5h-1c-.8 0-1.5-.7-1.5-1.5v-1c0-.8.7-1.5 1.5-1.5h1c.8 0 1.5.7 1.5 1.5v1zm4 .5h16v-2H20v2zm-5.5 6h-1c-1.4 0-2.5 1.1-2.5 2.5v1c0 1.4 1.1 2.5 2.5 2.5h1c1.4 0 2.5-1.1 2.5-2.5v-1c0-1.4-1.1-2.5-2.5-2.5zm1.5 3.5c0 .8-.7 1.5-1.5 1.5h-1c-.8 0-1.5-.7-1.5-1.5v-1c0-.8.7-1.5 1.5-1.5h1c.8 0 1.5.7 1.5 1.5v1zm4 .5h16v-2H20v2zm3.5-35C10.5 0 0 10.5 0 23.5S10.5 47 23.5 47 47 36.5 47 23.5 36.5 0 23.5 0zm0 46C11.1 46 1 35.9 1 23.5S11.1 1 23.5 1 46 11.1 46 23.5 35.9 46 23.5 46z" fill="#9e9e9e"/></svg>