<svg xmlns="http://www.w3.org/2000/svg" preserveAspectRatio="xMidYMid" width="47" height="47"><defs><style>.cls-5{fill:#9e9e9e}.cls-15,.cls-5{fill-rule:evenodd}.cls-15{stroke-linejoin:round;stroke-width:1px;fill:#fff;stroke:#435993}</style><filter id="drop-shadow-1" filterUnits="userSpaceOnUse"><feOffset dy="3" in="SourceAlpha"/><feGaussianBlur stdDeviation="2.828" result="dropBlur"/><feFlood flood-opacity=".2"/><feComposite operator="in" in2="dropBlur" result="dropShadowComp"/><feComposite in="SourceGraphic" result="shadowed"/></filter></defs><path d="M23.5-895C10.542-895 0-905.542 0-918.5S10.542-942 23.5-942 47-931.458 47-918.5 36.458-895 23.5-895zm0-46C11.094-941 1-930.906 1-918.5S11.094-896 23.5-896 46-906.094 46-918.5 35.906-941 23.5-941zm10.347 35.312l-.378.032v.528c0 .626-.524 1.131-1.169 1.131H13.439l-.091.008c-.014 0-.026-.008-.04-.008h-.136c-.645 0-1.169-.505-1.169-1.131v-25.721c0-.625.524-1.132 1.169-1.132h.136c.014 0 .026-.008.04-.008l20.499-1.7c.632 0 1.147.508 1.147 1.133v25.735c0 .625-.515 1.133-1.147 1.133zm-20.675-25.283c-.079 0-.146.055-.146.122v25.721c0 .066.065.12.146.12H31.8c.081 0 .146-.054.146-.12v-25.721c0-.067-.067-.122-.146-.122H13.172zm20.799-1.585a.123.123 0 0 0-.102-.12l-7.971.695H31.8c.645 0 1.169.507 1.169 1.132v24.179l.788-.025.045-.004h.045a.124.124 0 0 0 .124-.122v-25.735zm-6.096 24.555H17.136c-.625 0-1.131-.535-1.131-1.199v-.6c0-.662.506-1.199 1.131-1.199h10.739c.625 0 1.131.537 1.131 1.199v.6c0 .664-.506 1.199-1.131 1.199zm.131-1.799c0-.123-.076-.199-.131-.199H17.136c-.055 0-.131.076-.131.199v.6c0 .114.069.199.131.199h10.739c.061 0 .131-.085.131-.199v-.6zM22.5-915a6.5 6.5 0 1 1 0-13 6.5 6.5 0 0 1 0 13zm0-12a5.5 5.5 0 1 0 0 11 5.5 5.5 0 1 0 0-11z" class="cls-5"/><path d="M-357.001-127.987h13.994a2.998 2.998 0 0 1 2.998 2.998v13.992a2.998 2.998 0 0 1-2.998 2.998h-13.994a2.999 2.999 0 0 1-2.999-2.998v-13.992a2.999 2.999 0 0 1 2.999-2.998zm0 34.98h13.994a3 3 0 0 1 2.998 3.003v14.014a3 3 0 0 1-2.998 3.003h-13.994A3.002 3.002 0 0 1-360-75.99v-14.014a3 3 0 0 1 2.999-3.003zm0-70.085h13.994a2.998 2.998 0 0 1 2.998 2.998v13.992a2.998 2.998 0 0 1-2.998 2.998h-13.994a2.999 2.999 0 0 1-2.999-2.998v-13.992a2.999 2.999 0 0 1 2.999-2.998z" class="cls-15"/><g fill-rule="evenodd"><path d="M-357.001-162.999h13.994a2.999 2.999 0 0 1 2.998 2.999v13.992a2.998 2.998 0 0 1-2.998 2.998h-13.994a2.999 2.999 0 0 1-2.999-2.998V-160a3 3 0 0 1 2.999-2.999z" fill="#435993"/><path d="M-343.293-155.293l-7 7-.207-.207-.207.207-5-5 1.414-1.414 3.793 3.793 5.793-5.793 1.414 1.414z" fill="#fff"/></g><path d="M-76.996-162.999h13.994A3 3 0 0 1-60.003-160v13.992a2.999 2.999 0 0 1-2.999 2.998h-13.994a2.999 2.999 0 0 1-2.999-2.998V-160a3 3 0 0 1 2.999-2.999zm0 35.012h13.994a2.999 2.999 0 0 1 2.999 2.998v13.992a2.999 2.999 0 0 1-2.999 2.998h-13.994a2.999 2.999 0 0 1-2.999-2.998v-13.992a2.999 2.999 0 0 1 2.999-2.998zm0 34.98h13.994a3 3 0 0 1 2.999 3.003v14.014a3.002 3.002 0 0 1-2.999 3.003h-13.994a3.002 3.002 0 0 1-2.999-3.003v-14.014a3 3 0 0 1 2.999-3.003z" class="cls-15"/><path d="M-357.001-127.999h13.994a2.999 2.999 0 0 1 2.998 2.999v13.992a2.998 2.998 0 0 1-2.998 2.998h-13.994a2.999 2.999 0 0 1-2.999-2.998V-125a3 3 0 0 1 2.999-2.999z" fill="#e9efff" stroke="#435993" stroke-linejoin="round" fill-rule="evenodd"/><path d="M203.004-162.999h13.994a3 3 0 0 1 2.999 2.999v13.992a2.999 2.999 0 0 1-2.999 2.998h-13.994a2.999 2.999 0 0 1-2.999-2.998V-160a3 3 0 0 1 2.999-2.999zm0 35.012h13.994a2.999 2.999 0 0 1 2.999 2.998v13.992a2.999 2.999 0 0 1-2.999 2.998h-13.994a2.999 2.999 0 0 1-2.999-2.998v-13.992a2.999 2.999 0 0 1 2.999-2.998zm0 34.98h13.994a3 3 0 0 1 2.999 3.003v14.014a3.002 3.002 0 0 1-2.999 3.003h-13.994a3.002 3.002 0 0 1-2.999-3.003v-14.014a3 3 0 0 1 2.999-3.003z" class="cls-15"/><path d="M25.5-270C12.542-270 2-280.542 2-293.5S12.542-317 25.5-317 49-306.458 49-293.5 38.458-270 25.5-270zm0-46C13.094-316 3-305.906 3-293.5S13.094-271 25.5-271 48-281.094 48-293.5 37.906-316 25.5-316zm-3.491 32.002h16v2h-16v-2zm0-10.006h16v2h-16v-2zm0-10.006h16v2h-16v-2zm-5.51 24.012h-1a2.502 2.502 0 0 1-2.5-2.5v-1c0-1.379 1.121-2.5 2.5-2.5h1c1.379 0 2.5 1.121 2.5 2.5v1c0 1.379-1.121 2.5-2.5 2.5zm1.5-3.5c0-.827-.673-1.5-1.5-1.5h-1c-.827 0-1.5.673-1.5 1.5v1c0 .827.673 1.5 1.5 1.5h1c.827 0 1.5-.673 1.5-1.5v-1zm-1.5-6.506h-1a2.502 2.502 0 0 1-2.5-2.5v-1c0-1.379 1.121-2.5 2.5-2.5h1c1.379 0 2.5 1.121 2.5 2.5v1c0 1.379-1.121 2.5-2.5 2.5zm1.5-3.5c0-.827-.673-1.5-1.5-1.5h-1c-.827 0-1.5.673-1.5 1.5v1c0 .827.673 1.5 1.5 1.5h1c.827 0 1.5-.673 1.5-1.5v-1zm-1.5-6.506h-1a2.502 2.502 0 0 1-2.5-2.5v-1c0-1.379 1.121-2.5 2.5-2.5h1c1.379 0 2.5 1.121 2.5 2.5v1c0 1.379-1.121 2.5-2.5 2.5zm1.5-3.5c0-.827-.673-1.5-1.5-1.5h-1c-.827 0-1.5.673-1.5 1.5v1c0 .827.673 1.5 1.5 1.5h1c.827 0 1.5-.673 1.5-1.5v-1zM23.5 47C10.542 47 0 36.458 0 23.5S10.542 0 23.5 0 47 10.542 47 23.5 36.458 47 23.5 47zm0-46C11.094 1 1 11.094 1 23.5S11.094 46 23.5 46 46 35.906 46 23.5 35.906 1 23.5 1zm-1.49 20.996h16.005v2H22.01v-2zm0-6.003h16.005v2H22.01v-2zm0-6.004h16.005v2H22.01v-2zm-4.014 13h-7a2 2 0 0 1-2-2v-9a2 2 0 0 1 2-2h7a2 2 0 0 1 2 2v9a2 2 0 0 1-2 2zm1-11a1 1 0 0 0-1-1h-7a1 1 0 0 0-1 1v9a1 1 0 0 0 1 1h7a1 1 0 0 0 1-1v-9zm19.019 18.009h-29v-2h29v2zm0 6.002h-29v-2h29v2z" class="cls-5"/></svg>